HIERARCHY
ROOT root
{
	OFFSET	0	13.1	24.9
	CHANNELS 6  Xposition Yposition Zposition Xrotation Yrotation Zrotation
	JOINT spine_1
	{
		OFFSET	0	9.99999	0
		CHANNELS 3  Xrotation Yrotation Zrotation
		JOINT spine_2
		{
			OFFSET	0	112	-10
			CHANNELS 3  Xrotation Yrotation Zrotation
			JOINT spine_3
			{
				OFFSET	0	206.5	19.3
				CHANNELS 3  Xrotation Yrotation Zrotation
				JOINT spine_4
				{
					OFFSET	0	110.4	14.6
					CHANNELS 3  Xrotation Yrotation Zrotation
					JOINT neck_1
					{
						OFFSET	0	71.8	-50.3
						CHANNELS 3  Xrotation Yrotation Zrotation
						JOINT neck_2
						{
							OFFSET	0	86.2	-25.8
							CHANNELS 3  Xrotation Yrotation Zrotation
							JOINT head_ee
							{
								OFFSET	0	179.8	-8.7
								CHANNELS 3  Xrotation Yrotation Zrotation
								End Site
								{
									OFFSET	1	0	0
								}
							}
						}
					}
					JOINT left_clavicle
					{
						OFFSET	-43.2	22.4	-70.8
						CHANNELS 3  Xrotation Yrotation Zrotation
						JOINT left_shoulder
						{
							OFFSET	-93.9	-5.79999	48.7
							CHANNELS 3  Xrotation Yrotation Zrotation
							JOINT left_elbow
							{
								OFFSET	-291.4	-30.8	15.2
								CHANNELS 3  Xrotation Yrotation Zrotation
								JOINT left_lowarm_twist
								{
									OFFSET	-110.7	-3.89999	13.6
									CHANNELS 3  Xrotation Yrotation Zrotation
									JOINT left_hand
									{
										OFFSET	-110.7	-3.89999	13.6
										CHANNELS 3  Xrotation Yrotation Zrotation
										JOINT left_ee
										{
											OFFSET	-80.8	-5.10001	12.1
											CHANNELS 3  Xrotation Yrotation Zrotation
											End Site
											{
												OFFSET	1	0	0
											}
										}
									}
								}
							}
						}
					}
					JOINT right_clavicle
					{
						OFFSET	43.2	22.4	-70.8
						CHANNELS 3  Xrotation Yrotation Zrotation
						JOINT right_shoulder
						{
							OFFSET	93.9	-5.79999	48.7
							CHANNELS 3  Xrotation Yrotation Zrotation
							JOINT right_elbow
							{
								OFFSET	291.4	-30.8	15.2
								CHANNELS 3  Xrotation Yrotation Zrotation
								JOINT right_lowarm_twist
								{
									OFFSET	110.7	-3.89999	13.6
									CHANNELS 3  Xrotation Yrotation Zrotation
									JOINT right_hand
									{
										OFFSET	110.7	-3.89999	13.6
										CHANNELS 3  Xrotation Yrotation Zrotation
										JOINT right_ee
										{
											OFFSET	80.8	-5.10001	12.1
											CHANNELS 3  Xrotation Yrotation Zrotation
											End Site
											{
												OFFSET	1	0	0
											}
										}
									}
								}
							}
						}
					}
				}
			}
		}
	}
	JOINT left_hip
	{
		OFFSET	-82.8	-127.5	0.300001
		CHANNELS 3  Xrotation Yrotation Zrotation
		JOINT left_knee
		{
			OFFSET	-28.2	-396.7	2.2
			CHANNELS 3  Xrotation Yrotation Zrotation
			JOINT left_ankle
			{
				OFFSET	-11.7	-411.3	35.4
				CHANNELS 3  Xrotation Yrotation Zrotation
				JOINT left_toes
				{
					OFFSET	0	-60	-88.6
					CHANNELS 3  Xrotation Yrotation Zrotation
					JOINT left_foot_ee
					{
						OFFSET	-22.5	-16.5	-42.2
						CHANNELS 3  Xrotation Yrotation Zrotation
						End Site
						{
							OFFSET	1	0	0
						}
					}
				}
			}
		}
	}
	JOINT right_hip
	{
		OFFSET	82.8	-127.5	0.300001
		CHANNELS 3  Xrotation Yrotation Zrotation
		JOINT right_knee
		{
			OFFSET	28.2	-396.7	2.2
			CHANNELS 3  Xrotation Yrotation Zrotation
			JOINT right_ankle
			{
				OFFSET	11.7	-411.3	35.4
				CHANNELS 3  Xrotation Yrotation Zrotation
				JOINT right_toes
				{
					OFFSET	0	-60	-88.6
					CHANNELS 3  Xrotation Yrotation Zrotation
					JOINT right_foot_ee
					{
						OFFSET	22.5	-16.5	-42.2
						CHANNELS 3  Xrotation Yrotation Zrotation
						End Site
						{
							OFFSET	1	0	0
						}
					}
				}
			}
		}
	}
}
MOTION
Frames: 8
Frame Time: 0.02
732.851 684.34 -590.827 168.945 -81.1544 160.975 -1.937 1.42078 6.1562 -1.91651 1.02695 6.23372 -1.78097 -0.50203 6.29751 -1.83592 0.496818 6.29792 -13.3952 -0.80223 -8.70565 -13.191 3.88946 -8.54932 -0.0 0.0 -0.0 -4.38041 21.5318 -3.76347 -11.3143 -23.0778 65.9466 0.439291 -12.2771 0.0472457 -76.0482 -7.31873 5.31547 5.10036 4.54895 38.4978 -0.0 0.0 -0.0 13.2396 27.7363 -26.0135 30.843 7.10829 -63.6826 3.01006 56.1409 -1.60549 69.7006 2.70937 7.92609 -1.76528 6.03822 14.6259 0.0 0.0 0.0 28.8002 11.4663 2.62859 -5.10189 0.176183 0.762909 -19.7733 18.6429 3.01764 -33.5931 0.0 0.0 -0.0 0.0 -0.0 -19.6451 7.56196 8.16173 -13.8027 -0.31798 -2.08923 41.8674 -4.34112 5.01567 -7.08462 0.0 0.0 0.0 0.0 0.0 
757.468 684.092 -597.823 173.565 -80.4892 166.16 -1.7587 1.34758 6.04743 -1.73888 0.960773 6.12054 -1.61446 -0.521325 6.17332 -1.6673 0.458265 6.1783 -12.1595 -1.22544 -8.63812 -11.9533 3.22747 -8.64968 -0.0 0.0 -0.0 -4.34854 21.286 -3.77579 -10.9571 -23.7038 66.2508 0.488737 -13.61 0.0583218 -74.4921 -7.11998 5.31993 5.23253 3.93439 39.3926 -0.0 0.0 -0.0 12.8747 27.4573 -25.2096 29.306 6.38248 -64.0728 2.91963 55.3284 -1.53075 70.5807 2.80084 7.99229 -1.99991 4.45075 15.545 0.0 0.0 0.0 29.0184 11.6895 2.38907 -6.61019 0.215179 0.991088 -25.033 22.1092 3.87174 -35.1068 0.0 0.0 -0.0 0.0 -0.0 -20.7298 7.61893 8.28043 -12.3466 -0.308315 -1.86604 41.9136 -5.11121 5.01947 -8.90485 0.0 0.0 0.0 0.0 0.0 
782.463 690.737 -604.696 175.559 -80.8169 168.243 -1.51735 1.14617 6.02852 -1.49746 0.760963 6.08892 -1.39703 -0.685768 6.09782 -1.44876 0.284006 6.12956 -10.5895 -0.567618 -7.30248 -10.4416 3.80585 -7.24291 -0.0 0.0 -0.0 -3.7083 21.1918 -2.86872 -10.7936 -24.08 66.0473 0.441255 -12.3302 0.047664 -77.4304 -7.49503 5.30696 5.11296 7.44754 39.6923 -0.0 0.0 -0.0 12.8565 27.2164 -25.1983 25.8777 5.8428 -64.299 2.87738 54.9369 -1.49609 70.827 2.82663 8.01057 -2.22965 -0.184326 14.9789 0.0 0.0 0.0 28.8511 11.9777 2.99208 -9.16045 0.267403 1.37892 -16.5376 18.2909 2.5168 -31.48 0.0 0.0 -0.0 0.0 -0.0 -21.6792 7.75534 8.35976 -11.8035 -0.303257 -1.78285 40.7753 -6.73258 4.92683 -4.26787 0.0 0.0 0.0 0.0 0.0 
811.685 692.766 -613.052 177.467 -81.8185 169.877 -1.31736 0.852969 5.64481 -1.29978 0.492642 5.68746 -1.23543 -0.837577 5.64711 -1.27989 0.0632809 5.70833 -9.41889 -0.560843 -6.27161 -9.30769 3.25003 -6.28209 -0.0 0.0 -0.0 -3.26984 21.0277 -2.26801 -10.5454 -24.3781 65.4768 0.431691 -12.0709 0.0456428 -77.2062 -7.46646 5.30863 5.00736 4.70828 37.7683 -0.0 0.0 -0.0 12.841 26.4773 -25.2535 22.8231 6.28206 -64.0075 2.75368 53.7455 -1.39557 69.4232 2.68073 7.90492 -2.15639 -1.01873 14.0761 0.0 0.0 0.0 26.0371 10.7943 4.8532 -7.35812 0.232284 1.10459 -11.1559 16.2112 1.68004 -34.9784 0.0 0.0 -0.0 0.0 -0.0 -20.6398 9.01868 8.37429 -17.8747 -0.314881 -2.71386 40.1561 -11.1782 4.90002 0.573325 -0.0 -0.0 0.0 0.0 0.0 
828.407 694.747 -618.415 -179.204 -82.1743 172.82 -1.11185 0.848889 5.4292 -1.0956 0.502225 5.47204 -1.03414 -0.758947 5.44247 -1.07543 0.108769 5.4939 -8.70335 -0.263833 -3.35273 -8.67122 1.84203 -3.36385 -0.0 0.0 -0.0 -2.78549 20.4951 -1.66828 -8.74047 -25.0085 65.5912 0.48302 -13.4566 0.0569839 -79.9146 -7.811 5.28088 4.95842 8.59532 38.7662 -0.0 0.0 -0.0 12.9039 27.115 -25.3199 20.274 5.73921 -63.4556 2.56916 51.8333 -1.2486 70.058 2.74639 7.95314 -2.87768 -6.52118 16.2799 0.0 0.0 0.0 24.7616 11.2857 6.08238 -7.41581 0.233542 1.11335 -4.1624 14.9901 0.618523 -35.9243 0.0 0.0 -0.0 0.0 -0.0 -19.5996 9.10885 9.49456 -20.889 -0.284012 -3.17527 36.2049 -13.1856 4.5553 5.12385 -0.0 -0.0 0.0 0.0 0.0 
857.378 694.242 -627.572 -177.361 -83.2213 174.62 -0.953604 0.732515 5.17551 -0.938799 0.402157 5.2115 -0.890814 -0.78417 5.16796 -0.928061 0.040695 5.22679 -7.66974 -1.29623 -1.27317 -7.66573 -1.50832 -1.5404 -0.0 0.0 -0.0 -2.41321 20.329 -1.15437 -7.33781 -25.5803 65.8952 0.553505 -15.3333 0.074509 -82.0591 -8.08243 5.24728 4.85474 6.96969 37.3257 -0.0 0.0 -0.0 12.6476 26.5882 -24.7954 16.1947 6.82791 -62.2657 2.27083 48.3574 -1.01964 68.9282 2.62992 7.86683 -2.63418 -4.12177 15.8411 0.0 0.0 0.0 23.9141 11.8095 7.38322 -8.38609 0.253372 1.26092 0.828131 14.0254 -0.121537 -35.4581 0.0 0.0 -0.0 0.0 -0.0 -18.9944 8.77792 9.83626 -23.9118 -0.228724 -3.63578 32.1278 -16.2068 4.1782 10.5477 -0.0 -0.0 0.0 0.0 0.0 
881.162 692.553 -632.432 177.437 -85.2001 169.954 -0.76042 0.516514 4.52755 -0.749049 0.227672 4.55118 -0.723129 -0.792045 4.48764 -0.751214 -0.0741336 4.55625 -6.55787 -0.511348 -0.408265 -6.55745 -0.650027 -0.509866 -0.0 0.0 -0.0 -1.84753 19.5143 -0.46023 -6.18973 -26.8209 65.7402 0.52424 -14.5579 0.0669615 -83.8641 -8.30965 5.21107 4.72068 7.58106 36.4283 -0.0 0.0 -0.0 12.809 26.8147 -25.1389 12.8737 6.14344 -60.8658 1.99653 44.6787 -0.820506 70.6141 2.80434 7.99478 -2.77048 -6.99487 15.3064 0.0 0.0 0.0 21.2719 10.9077 7.9143 -6.4138 0.210442 0.961321 -1.15855 7.18894 0.170042 -36.0881 0.0 0.0 -0.0 0.0 -0.0 -17.914 8.27948 10.4902 -27.7082 -0.125003 -4.20905 36.274 -16.6343 4.60777 12.2995 -0.0 -0.0 0.0 0.0 0.0 
899.018 695.761 -643.551 -178.622 -86.9675 173.917 -0.552476 0.227572 4.02456 -0.543468 -0.0287706 4.03087 -0.540324 -0.913843 3.92619 -0.561718 -0.282833 4.02106 -7.91324 -1.06857 -0.916133 -7.91128 -1.34411 -1.13932 -0.0 0.0 -0.0 -1.27187 18.8082 0.289536 -4.39048 -28.035 66.7437 0.601886 -16.6024 0.0878194 -85.137 -8.46905 5.18119 4.63699 8.34748 36.0046 -0.0 0.0 -0.0 11.6104 26.5506 -22.4313 9.50792 7.89482 -61.4788 1.74532 40.8425 -0.649859 69.6916 2.70843 7.9254 -2.52552 -9.13023 12.5732 0.0 0.0 0.0 19.5832 11.3171 9.74153 -6.19831 0.205127 0.928679 5.51497 8.51836 -0.795288 -36.1789 0.0 0.0 -0.0 0.0 -0.0 -16.9335 9.2937 10.6059 -28.9171 -0.0840168 -4.39006 35.2063 -19.4158 4.55008 14.5481 -0.0 -0.0 0.0 0.0 0.0 
